# xmcd
#
# Track frame offsets:
#	182
#	16282
#	35835
#	48262
#	60560
#	73522
#	88050
#	103795
#	117980
#	133005
#	145025
#	165805
#	177865
#	190720
#	204227
#	219367
#	233262
#	246675
#	261627
#
# Disc length: 3631 seconds
#
# Revision: 2
# Processed by: cddbd v1.5.2PL0 Copyright (c) Steve Scherf et al.
# Submitted via: DiscPlay 4.0.4
#
DISCID=0a0e2d13
DTITLE=Ray Charles - Sweet and Sour Tears
DYEAR=1900
DGENRE=
TTITLE0=Cry
TTITLE1=Guess I'll Hang My Tears Out to Dry
TTITLE2=A Tear Fell
TTITLE3=No One to Cry To
TTITLE4=You've Got Me Crying Again
TTITLE5=After My Laughter Came Tears
TTITLE6=Teardrops From My Eyes
TTITLE7=Don't Cry, Baby
TTITLE8=Cry Me A River
TTITLE9=Baby, Don't You Cry
TTITLE10=Willow, Weep for Me
TTITLE11=I Cried for You
TTITLE12=My Heart Cries for You
TTITLE13=I Wake Up Crying
TTITLE14=Drown in My Own Tears
TTITLE15=Teardrops in My Heart
TTITLE16=Crying Time
TTITLE17=No Use Crying
TTITLE18=Tired of My Tears
EXTD=
EXTT0=
EXTT1=
EXTT2=
EXTT3=
EXTT4=
EXTT5=
EXTT6=
EXTT7=
EXTT8=
EXTT9=
EXTT10=
EXTT11=
EXTT12=
EXTT13=
EXTT14=
EXTT15=
EXTT16=
EXTT17=
EXTT18=
PLAYORDER=
